<?xml version="1.0" encoding="utf-8"?>
<!DOCTYPE svg PUBLIC "-//W3C//DTD SVG 1.1//EN" "http://www.w3.org/Graphics/SVG/1.1/DTD/svg11.dtd">
<svg version="1.1" id="Layer_2" xmlns="http://www.w3.org/2000/svg" xmlns:xlink="http://www.w3.org/1999/xlink" x="0px" y="0px"
	 width="841.89px" height="595.275px" viewBox="0 0 841.89 595.275" enable-background="new 0 0 841.89 595.275"
	 xml:space="preserve">
<!-- 直线 --> 
<path d="M800 300 L800 200" fill="green" stroke="green" stroke-width="2"/>

<!-- 半圆 -->
<!-- <path d="M400 325 A 200 200 30 0 1 800 325" fill="red"/>  -->

<!-- 环形 -->
<!-- <path d="M200 200 A 300 300 0 0 1 600 200 L500 300 A 200 200 0 0 0 300 300" fill="red" stroke="red" stroke-width="2" /> -->
<!-- <path d="M200 200 A 200 200 0 0 1 300 300 L250 300 A250 300 0 0 0 200 250" fill="green" /> -->


<path d="M400 325 A 200 200 90 0 1 800 325" fill="red"/> 

 <path d="M10 315
           L 110 215
           A 30 50 0 0 1 162.55 162.45
           L 172.55 152.45
           A 30 50 -45 0 1 215.1 109.9
           L 315 10" stroke="black" fill="green" stroke-width="2" fill-opacity="0.5"/>
</svg>
